{
    "asset" : {
        "generator" : "Khronos glTF Blender I/O v1.8.19",
        "version" : "2.0"
    },
    "scene" : 0,
    "scenes" : [
        {
            "name" : "Scene",
            "nodes" : [
                0
            ]
        }
    ],
    "nodes" : [
        {
            "mesh" : 0,
            "name" : "texturedMesh",
            "rotation" : [
                0.7071068286895752,
                0,
                0,
                0.7071067094802856
            ],
            "translation" : [
                -0.03485715389251709,
                0.23882007598876953,
                -1.6240078210830688
            ]
        }
    ],
    "meshes" : [
        {
            "name" : "texturedMesh",
            "primitives" : [
                {
                    "attributes" : {
                        "POSITION" : 0,
                        "NORMAL" : 1,
                        "TEXCOORD_0" : 2
                    },
                    "indices" : 3
                }
            ]
        }
    ],
    "accessors" : [
        {
            "bufferView" : 0,
            "componentType" : 5126,
            "count" : 5742,
            "max" : [
                0.4224824905395508,
                1.788748860359192,
                0.4723522365093231
            ],
            "min" : [
                -0.3029330372810364,
                1.3783807754516602,
                -0.21755987405776978
            ],
            "type" : "VEC3"
        },
        {
            "bufferView" : 1,
            "componentType" : 5126,
            "count" : 5742,
            "type" : "VEC3"
        },
        {
            "bufferView" : 2,
            "componentType" : 5126,
            "count" : 5742,
            "type" : "VEC2"
        },
        {
            "bufferView" : 3,
            "componentType" : 5123,
            "count" : 5742,
            "type" : "SCALAR"
        }
    ],
    "bufferViews" : [
        {
            "buffer" : 0,
            "byteLength" : 68904,
            "byteOffset" : 0
        },
        {
            "buffer" : 0,
            "byteLength" : 68904,
            "byteOffset" : 68904
        },
        {
            "buffer" : 0,
            "byteLength" : 45936,
            "byteOffset" : 137808
        },
        {
            "buffer" : 0,
            "byteLength" : 11484,
            "byteOffset" : 183744
        }
    ],
    "buffers" : [
        {
            "byteLength" : 195228,
            "uri" : "data:application/octet-stream;base64,"
        }
    ]
}
